<svg version="1.1" xmlns="http://www.w3.org/2000/svg" xmlns:xlink="http://www.w3.org/1999/xlink" width="85.5" height="155.55163" viewBox="0,0,85.5,155.55163"><g transform="translate(-195.25,-93.86504)"><g data-paper-data="{&quot;isPaintingLayer&quot;:true}" fill-rule="nonzero" stroke-linejoin="miter" stroke-miterlimit="10" stroke-dasharray="" stroke-dashoffset="0" style="mix-blend-mode: normal"><path d="M271.51835,144.78903l-12.56743,29.27959l-10.13524,-4.35026l12.56742,-29.27959z" data-paper-data="{&quot;index&quot;:null}" fill="#7d7d7d" stroke="#676767" stroke-width="2.5" stroke-linecap="butt"/><g data-paper-data="{&quot;index&quot;:null}" fill="#7d7d7d" stroke="#676767" stroke-width="2.5"><path d="M267.66667,126.27266c6.53537,0 11.83333,5.29796 11.83333,11.83333c0,6.53537 -5.29796,11.83333 -11.83333,11.83333c-6.53537,0 -11.83333,-5.29796 -11.83333,-11.83333c0,-6.53537 5.29796,-11.83333 11.83333,-11.83333z" stroke-linecap="butt"/><path d="M267.66668,126.96466v22.28265" stroke-linecap="round"/><path d="M256.52535,138.10599h22.28265" stroke-linecap="round"/></g><path d="M222.05359,232.79347v-32.10784h7.59804v32.10784z" data-paper-data="{&quot;index&quot;:null}" fill="#7d7d7d" stroke="#676767" stroke-width="2.5" stroke-linecap="butt"/><path d="M248.76927,213.67581v-35.04902h6.86275v35.04902z" data-paper-data="{&quot;index&quot;:null}" fill="#7d7d7d" stroke="#676767" stroke-width="2.5" stroke-linecap="butt"/><g fill="#7d7d7d" stroke="#676767" stroke-width="2.5"><path d="M211.50001,180c0,-15.74012 12.75988,-28.5 28.5,-28.5c15.74012,0 28.5,12.75988 28.5,28.5c0,15.74012 -12.75988,28.5 -28.5,28.5c-15.74012,0 -28.5,-12.75988 -28.5,-28.5z" stroke-linecap="butt"/><path d="M240.00001,153.16667v53.66667" stroke-linecap="round"/><path d="M266.83334,180h-53.66667" stroke-linecap="round"/></g><g data-paper-data="{&quot;index&quot;:null}" fill="#7d7d7d" stroke="#676767" stroke-width="2.5"><path d="M252.66668,229.7843c-6.53537,0 -11.83333,-5.29796 -11.83333,-11.83333c0,-6.53537 5.29796,-11.83333 11.83333,-11.83333c6.53537,0 11.83333,5.29796 11.83333,11.83333c0,6.53537 -5.29796,11.83333 -11.83333,11.83333z" stroke-linecap="butt"/><path d="M252.66667,229.0923v-22.28265" stroke-linecap="round"/><path d="M241.52535,217.95097h22.28265" stroke-linecap="round"/></g><path d="M204.69804,192.31696l12.56742,-29.27959l10.13524,4.35026l-12.56742,29.27959z" fill="#7d7d7d" stroke="#676767" stroke-width="2.5" stroke-linecap="butt"/><g data-paper-data="{&quot;index&quot;:null}" fill="#7d7d7d" stroke="#676767" stroke-width="2.5"><path d="M226.00001,248.16667c-6.53537,0 -11.83334,-5.29796 -11.83334,-11.83333c0,-6.53537 5.29797,-11.83334 11.83334,-11.83334c6.53537,0 11.83333,5.29797 11.83333,11.83334c0,6.53537 -5.29796,11.83333 -11.83333,11.83333z" stroke-linecap="butt"/><path d="M226.00001,225.19201v22.28266" stroke-linecap="round"/><path d="M237.14134,236.33334h-22.28266" stroke-linecap="round"/></g><g fill="#7d7d7d" stroke="#676767" stroke-width="2.5"><path d="M196.5,198.33333c0,-6.53537 5.29796,-11.83333 11.83333,-11.83333c6.53537,0 11.83333,5.29796 11.83333,11.83333c0,6.53537 -5.29796,11.83333 -11.83333,11.83333c-6.53537,0 -11.83333,-5.29796 -11.83333,-11.83333z" stroke-linecap="butt"/><path d="M208.33334,209.47466v-22.28265" stroke-linecap="round"/><path d="M219.47466,198.33333h-22.28265" stroke-linecap="round"/></g><g fill="#7d7d7d" stroke="#676767" stroke-width="2.5"><path d="M226.80068,126.80068c7.28979,-7.28979 19.10885,-7.28979 26.39864,0c7.28979,7.28979 7.2898,19.10886 0.00001,26.39865c-7.28979,7.28979 -19.10886,7.28978 -26.39865,-0.00001c-7.28979,-7.28979 -7.28979,-19.10885 0,-26.39864z" stroke-linecap="butt"/><path d="M227.57256,152.42745l24.85487,-24.85487" stroke-linecap="round"/><path d="M227.57256,127.57256l24.85487,24.85487" stroke-linecap="round"/></g><path d="M234.71595,127.96978l8.4703,8.4703l5.86483,-5.86483v19.54942h-19.54942l5.86483,-5.86483l-8.4703,-8.4703z" fill="#000000" stroke="#676767" stroke-width="2.5" stroke-linecap="butt"/><text transform="translate(240.92682,111.71504) scale(0.5,0.5)" font-size="40" xml:space="preserve" fill="#000000" fill-rule="nonzero" stroke="none" stroke-width="1" stroke-linecap="butt" stroke-linejoin="miter" stroke-miterlimit="10" stroke-dasharray="" stroke-dashoffset="0" font-family="Archivo Black" font-weight="normal" text-anchor="middle" style="mix-blend-mode: normal"><tspan x="0" dy="0">Fall</tspan></text></g></g></svg>