<svg version="1.1" xmlns="http://www.w3.org/2000/svg" xmlns:xlink="http://www.w3.org/1999/xlink" width="85.5" height="155.55163" viewBox="0,0,85.5,155.55163"><g transform="translate(-195.25,-93.86504)"><g data-paper-data="{&quot;isPaintingLayer&quot;:true}" fill-rule="nonzero" stroke-linejoin="miter" stroke-miterlimit="10" stroke-dasharray="" stroke-dashoffset="0" style="mix-blend-mode: normal"><path d="M249.01505,232.79347v-32.10784h7.59804v32.10784z" fill="#7d7d7d" stroke="#676767" stroke-width="2.5" stroke-linecap="butt"/><path d="M223.03466,213.67581v-35.04902h6.86275v35.04902z" fill="#7d7d7d" stroke="#676767" stroke-width="2.5" stroke-linecap="butt"/><g fill="#7d7d7d" stroke="#676767" stroke-width="2.5"><path d="M255.83334,199c0,-6.53537 5.29796,-11.83333 11.83333,-11.83333c6.53537,0 11.83333,5.29796 11.83333,11.83333c0,6.53537 -5.29796,11.83333 -11.83333,11.83333c-6.53537,0 -11.83333,-5.29796 -11.83333,-11.83333z" stroke-linecap="butt"/><path d="M267.66668,187.85868v22.28265" stroke-linecap="round"/><path d="M278.808,199h-22.28265" stroke-linecap="round"/></g><path d="M261.3831,196.66722l-12.56742,-29.27959l10.13524,-4.35026l12.56743,29.27959z" data-paper-data="{&quot;index&quot;:null}" fill="#7d7d7d" stroke="#676767" stroke-width="2.5" stroke-linecap="butt"/><g fill="#7d7d7d" stroke="#676767" stroke-width="2.5"><path d="M211.50001,180c0,-15.74012 12.75988,-28.5 28.5,-28.5c15.74012,0 28.5,12.75988 28.5,28.5c0,15.74012 -12.75988,28.5 -28.5,28.5c-15.74012,0 -28.5,-12.75988 -28.5,-28.5z" stroke-linecap="butt"/><path d="M240.00001,153.16667v53.66667" stroke-linecap="round"/><path d="M213.16667,180h53.66667" stroke-linecap="round"/></g><g fill="#7d7d7d" stroke="#676767" stroke-width="2.5"><path d="M214.16667,217.95097c0,-6.53537 5.29796,-11.83333 11.83333,-11.83333c6.53537,0 11.83333,5.29796 11.83333,11.83333c0,6.53537 -5.29796,11.83333 -11.83333,11.83333c-6.53537,0 -11.83333,-5.29796 -11.83333,-11.83333z" stroke-linecap="butt"/><path d="M226.00001,229.0923v-22.28265" stroke-linecap="round"/><path d="M214.85868,217.95097h22.28265" stroke-linecap="round"/></g><path d="M204.69804,192.31696l12.56742,-29.27959l10.13524,4.35026l-12.56742,29.27959z" fill="#7d7d7d" stroke="#676767" stroke-width="2.5" stroke-linecap="butt"/><g fill="#7d7d7d" stroke="#676767" stroke-width="2.5"><path d="M240.83334,236.33334c0,-6.53537 5.29796,-11.83334 11.83333,-11.83334c6.53537,0 11.83334,5.29797 11.83334,11.83334c0,6.53537 -5.29797,11.83333 -11.83334,11.83333c-6.53537,0 -11.83333,-5.29796 -11.83333,-11.83333z" stroke-linecap="butt"/><path d="M252.66667,247.47467v-22.28266" stroke-linecap="round"/><path d="M241.52534,236.33334h22.28266" stroke-linecap="round"/></g><g fill="#7d7d7d" stroke="#676767" stroke-width="2.5"><path d="M196.5,198.33333c0,-6.53537 5.29796,-11.83333 11.83333,-11.83333c6.53537,0 11.83333,5.29796 11.83333,11.83333c0,6.53537 -5.29796,11.83333 -11.83333,11.83333c-6.53537,0 -11.83333,-5.29796 -11.83333,-11.83333z" stroke-linecap="butt"/><path d="M208.33334,187.19201v22.28265" stroke-linecap="round"/><path d="M219.47466,198.33333h-22.28265" stroke-linecap="round"/></g><g fill="#7d7d7d" stroke="#676767" stroke-width="2.5"><path d="M221.33334,140c0,-10.30932 8.35734,-18.66666 18.66666,-18.66666c10.30932,0 18.66667,8.35734 18.66667,18.66666c0,10.30932 -8.35735,18.66666 -18.66667,18.66666c-10.30932,0 -18.66666,-8.35734 -18.66666,-18.66666z" stroke-linecap="butt"/><path d="M240,122.42496v35.1501" stroke-linecap="round"/><path d="M222.42495,140h35.1501" stroke-linecap="round"/></g><path d="M227.75696,135.22974h11.97881v-8.29412l13.82353,13.82353l-13.82353,13.82353v-8.29412h-11.97881z" fill="#000000" stroke="#676767" stroke-width="2.5" stroke-linecap="butt"/><text transform="translate(240.92682,111.71504) scale(0.5,0.5)" font-size="40" xml:space="preserve" fill="#000000" fill-rule="nonzero" stroke="none" stroke-width="1" stroke-linecap="butt" stroke-linejoin="miter" stroke-miterlimit="10" stroke-dasharray="" stroke-dashoffset="0" font-family="Archivo Black" font-weight="normal" text-anchor="middle" style="mix-blend-mode: normal"><tspan x="0" dy="0">Walk 1</tspan></text></g></g></svg>