<svg version="1.1" xmlns="http://www.w3.org/2000/svg" xmlns:xlink="http://www.w3.org/1999/xlink" width="85.5" height="155.55163" viewBox="0,0,85.5,155.55163"><g transform="translate(-275.25,-93.86504)"><g data-paper-data="{&quot;isPaintingLayer&quot;:true}" fill-rule="nonzero" stroke-linejoin="miter" stroke-miterlimit="10" stroke-dasharray="" stroke-dashoffset="0" style="mix-blend-mode: normal"><path d="M329.01505,232.79347v-32.10784h7.59804v32.10784z" fill="#7d7d7d" stroke="#676767" stroke-width="2.5" stroke-linecap="butt"/><path d="M303.03466,232.05817v-35.04902h6.86275v35.04902z" fill="#7d7d7d" stroke="#676767" stroke-width="2.5" stroke-linecap="butt"/><g data-paper-data="{&quot;index&quot;:null}" fill="#7d7d7d" stroke="#676767" stroke-width="2.5"><path d="M347.66667,129.94913c6.53537,0 11.83333,5.29796 11.83333,11.83333c0,6.53537 -5.29796,11.83333 -11.83333,11.83333c-6.53537,0 -11.83333,-5.29796 -11.83333,-11.83333c0,-6.53537 5.29796,-11.83333 11.83333,-11.83333z" stroke-linecap="butt"/><path d="M347.66668,130.64113v22.28265" stroke-linecap="round"/><path d="M336.52535,141.78246h22.28265" stroke-linecap="round"/></g><path d="M351.51835,148.4655l-12.56743,29.27959l-10.13524,-4.35026l12.56742,-29.27959z" data-paper-data="{&quot;index&quot;:null}" fill="#7d7d7d" stroke="#676767" stroke-width="2.5" stroke-linecap="butt"/><g fill="#7d7d7d" stroke="#676767" stroke-width="2.5"><path d="M291.50001,180c0,-15.74012 12.75988,-28.5 28.5,-28.5c15.74012,0 28.5,12.75988 28.5,28.5c0,15.74012 -12.75988,28.5 -28.5,28.5c-15.74012,0 -28.5,-12.75988 -28.5,-28.5z" stroke-linecap="butt"/><path d="M320.00001,153.16667v53.66667" stroke-linecap="round"/><path d="M293.16667,180h53.66667" stroke-linecap="round"/></g><g fill="#7d7d7d" stroke="#676767" stroke-width="2.5"><path d="M294.16667,236.33333c0,-6.53537 5.29796,-11.83333 11.83333,-11.83333c6.53537,0 11.83333,5.29796 11.83333,11.83333c0,6.53537 -5.29796,11.83333 -11.83333,11.83333c-6.53537,0 -11.83333,-5.29796 -11.83333,-11.83333z" stroke-linecap="butt"/><path d="M306.00001,225.19201v22.28265" stroke-linecap="round"/><path d="M294.85868,236.33333h22.28265" stroke-linecap="round"/></g><path d="M294.83328,143.44857l12.56742,29.27959l-10.13524,4.35026l-12.56742,-29.27959z" data-paper-data="{&quot;index&quot;:null}" fill="#7d7d7d" stroke="#676767" stroke-width="2.5" stroke-linecap="butt"/><g fill="#7d7d7d" stroke="#676767" stroke-width="2.5"><path d="M320.83334,236.33334c0,-6.53537 5.29796,-11.83334 11.83333,-11.83334c6.53537,0 11.83334,5.29797 11.83334,11.83334c0,6.53537 -5.29797,11.83333 -11.83334,11.83333c-6.53537,0 -11.83333,-5.29796 -11.83333,-11.83333z" stroke-linecap="butt"/><path d="M332.66667,247.47467v-22.28266" stroke-linecap="round"/><path d="M321.52534,236.33334h22.28266" stroke-linecap="round"/></g><g data-paper-data="{&quot;index&quot;:null}" fill="#7d7d7d" stroke="#676767" stroke-width="2.5"><path d="M288.33333,129.94913c6.53537,0 11.83333,5.29796 11.83333,11.83333c0,6.53537 -5.29796,11.83333 -11.83333,11.83333c-6.53537,0 -11.83333,-5.29796 -11.83333,-11.83333c0,-6.53537 5.29796,-11.83333 11.83333,-11.83333z" stroke-linecap="butt"/><path d="M288.33334,152.92378v-22.28265" stroke-linecap="round"/><path d="M299.47466,141.78246h-22.28265" stroke-linecap="round"/></g><g fill="#7d7d7d" stroke="#676767" stroke-width="2.5"><path d="M301.33334,140c0,-10.30932 8.35734,-18.66666 18.66666,-18.66666c10.30932,0 18.66667,8.35734 18.66667,18.66666c0,10.30932 -8.35735,18.66666 -18.66667,18.66666c-10.30932,0 -18.66666,-8.35734 -18.66666,-18.66666z" stroke-linecap="butt"/><path d="M320,122.42496v35.1501" stroke-linecap="round"/><path d="M302.42495,140h35.1501" stroke-linecap="round"/></g><path d="M307.75696,135.22974h11.97881v-8.29412l13.82353,13.82353l-13.82353,13.82353v-8.29412h-11.97881z" fill="#000000" stroke="#676767" stroke-width="2.5" stroke-linecap="butt"/><text transform="translate(320.92682,111.71504) scale(0.5,0.5)" font-size="40" xml:space="preserve" fill="#000000" fill-rule="nonzero" stroke="none" stroke-width="1" stroke-linecap="butt" stroke-linejoin="miter" stroke-miterlimit="10" stroke-dasharray="" stroke-dashoffset="0" font-family="Archivo Black" font-weight="normal" text-anchor="middle" style="mix-blend-mode: normal"><tspan x="0" dy="0">Lose</tspan></text></g></g></svg>